<svg xmlns="http://www.w3.org/2000/svg" viewBox="0 0 500 500"><g id="freepik--Store--inject-2"><polyline points="482.55 323.46 367.89 323.46 367.89 449.65 482.55 449.65" style="fill:#bfbfbf;stroke:#263238;stroke-miterlimit:10"></polyline><rect x="367.9" y="323.46" width="29.7" height="126.19" style="fill:#7d7d7d;stroke:#263238;stroke-miterlimit:10"></rect><polyline points="396.97 448.99 396.97 348.19 396.97 43.26" style="fill:none;stroke:#263238;stroke-miterlimit:10"></polyline><polyline points="403.31 43.26 403.31 317.76 479.38 317.76" style="fill:none;stroke:#263238;stroke-miterlimit:10"></polyline><line x1="458.46" y1="99.68" x2="410.28" y2="180.82" style="fill:none;stroke:#263238;stroke-miterlimit:10"></line><line x1="437.38" y1="265.77" x2="410.28" y2="311.42" style="fill:none;stroke:#263238;stroke-miterlimit:10"></line><line x1="458.46" y1="81.29" x2="421.95" y2="142.79" style="fill:none;stroke:#263238;stroke-miterlimit:10"></line><line x1="369.07" y1="336.14" x2="480.65" y2="336.14" style="fill:none;stroke:#263238;stroke-miterlimit:10"></line><line x1="369.07" y1="438.21" x2="480.65" y2="438.21" style="fill:none;stroke:#263238;stroke-miterlimit:10"></line><rect x="407.74" y="342.48" width="59.59" height="88.12" style="fill:none;stroke:#263238;stroke-miterlimit:10"></rect><rect x="414.72" y="350.09" width="45.64" height="74.81" style="fill:none;stroke:#263238;stroke-miterlimit:10"></rect><polyline points="16.05 323.46 130.7 323.46 130.7 449.65 16.05 449.65" style="fill:#bfbfbf;stroke:#263238;stroke-miterlimit:10"></polyline><rect x="101" y="323.46" width="29.7" height="126.19" style="fill:#7d7d7d;stroke:#263238;stroke-miterlimit:10"></rect><polyline points="101.63 448.99 101.63 348.19 101.63 43.26" style="fill:none;stroke:#263238;stroke-miterlimit:10"></polyline><polyline points="95.29 43.26 95.29 317.76 19.22 317.76" style="fill:none;stroke:#263238;stroke-miterlimit:10"></polyline><line x1="40.14" y1="99.68" x2="88.32" y2="180.82" style="fill:none;stroke:#263238;stroke-miterlimit:10"></line><line x1="61.22" y1="265.77" x2="88.32" y2="311.42" style="fill:none;stroke:#263238;stroke-miterlimit:10"></line><line x1="40.14" y1="81.29" x2="76.65" y2="142.79" style="fill:none;stroke:#263238;stroke-miterlimit:10"></line><line x1="129.53" y1="336.14" x2="17.95" y2="336.14" style="fill:none;stroke:#263238;stroke-miterlimit:10"></line><line x1="129.53" y1="438.21" x2="17.95" y2="438.21" style="fill:none;stroke:#263238;stroke-miterlimit:10"></line><rect x="31.27" y="342.48" width="59.59" height="88.12" transform="translate(122.12 773.08) rotate(180)" style="fill:none;stroke:#263238;stroke-miterlimit:10"></rect><rect x="38.24" y="350.09" width="45.64" height="74.81" transform="translate(122.12 774.98) rotate(180)" style="fill:none;stroke:#263238;stroke-miterlimit:10"></rect><rect x="242.27" y="42.72" width="125.62" height="406.94" style="fill:#263238;stroke:#263238;stroke-miterlimit:10"></rect><rect x="249.58" y="56.05" width="110.81" height="373.67" style="fill:#fff;stroke:#263238;stroke-miterlimit:10"></rect><rect x="242.27" y="42.72" width="12.1" height="406.94" style="fill:#263238;stroke:#263238;stroke-miterlimit:10"></rect><rect x="129.62" y="42.72" width="117.13" height="406.94" style="fill:#263238;stroke:#263238;stroke-miterlimit:10"></rect><rect x="136.58" y="56.05" width="104.41" height="373.67" style="fill:#fff;stroke:#263238;stroke-miterlimit:10"></rect><polygon points="305.06 274.63 313.92 301.91 342.6 301.91 319.39 318.76 328.26 346.04 305.06 329.18 281.85 346.04 290.71 318.76 267.51 301.91 296.19 301.91 305.06 274.63" style="fill:#bfbfbf"></polygon><polygon points="186.5 274.63 195.37 301.91 224.05 301.91 200.84 318.76 209.71 346.04 186.5 329.18 163.3 346.04 172.17 318.76 148.96 301.91 177.64 301.91 186.5 274.63" style="fill:#bfbfbf"></polygon><polygon points="305.06 77.47 313.92 104.75 342.6 104.75 319.39 121.61 328.26 148.88 305.06 132.02 281.85 148.88 290.71 121.61 267.51 104.75 296.19 104.75 305.06 77.47" style="fill:#bfbfbf"></polygon><polygon points="186.5 77.47 195.37 104.75 224.05 104.75 200.84 121.61 209.71 148.88 186.5 132.02 163.3 148.88 172.17 121.61 148.96 104.75 177.64 104.75 186.5 77.47" style="fill:#bfbfbf"></polygon><rect x="227.46" y="187.51" width="4.58" height="87.52" style="fill:#fff;stroke:#263238;stroke-miterlimit:10"></rect></g><g id="freepik--Plant--inject-2"><path d="M99.62,329.66a93.81,93.81,0,0,0,16.3-9.49s-6,1.35-13.23,3.3A108.93,108.93,0,0,0,121,308.6s-7.24,2.95-15.74,6.85A117,117,0,0,0,117,302.18S106.71,308,96.68,314.62c7.15-8.42,12.54-19.56,12.54-19.56s-9.22,7.76-17.86,16.08c5.82-9.85,9.23-22.92,9.23-22.92s-6.83,8.53-13.4,17.85a108.29,108.29,0,0,0,4.37-22.57s-4.69,8.69-9.25,18.44a110.61,110.61,0,0,0,.32-21.27s-3,8.88-5.84,18.94a112.38,112.38,0,0,0-3.05-20.23s-2.27,13.44-3.42,26.08c-1.66-11.81-8.61-25.56-8.61-25.56s.43,9.06,1.44,19.24a112.22,112.22,0,0,0-9.93-17.28s1.86,9.08,4.48,19.1A112.55,112.55,0,0,0,45,285.19s4.73,12.58,10.06,24C47.67,299.91,35,291.62,35,291.62s5.57,8.64,12.06,17.54a109.56,109.56,0,0,0-19.11-11s7.34,8,15.51,15.92a108.05,108.05,0,0,0-21.61-7.89s8.74,6.69,18.25,13.06c-10.54-3.33-22.88-4-22.88-4s7.6,3.9,16.58,8a113.29,113.29,0,0,0-19.09-.12s11.82,4.06,23.63,7.19a94.33,94.33,0,0,0-15.55,2.38s4,.69,9.4,1.46a97.22,97.22,0,0,0-9.47,2.61s11.85,1,22.63,1.08c1.16,0,2.36,0,3.58,0a67,67,0,0,0-14.09,6.11s9-1,17.11-2.62a169.68,169.68,0,0,0,17.92-5v.1l.06-.11.09,0v.17a1.38,1.38,0,0,0,.07-.19l.08,0,0,.19.63,18.85,1.91-.06-.62-18.57a151.9,151.9,0,0,0,20.36,8.79c10,3.19,24.4,2.33,24.4,2.33S107,344.07,97,341.08c9.93.3,21.37-2.71,21.37-2.71s-11.44-1.86-22.27-2.79c10.15-1.48,21.8-7.38,21.8-7.38S109,328.65,99.62,329.66Z" style="fill:#92E3A9"></path><path d="M91,377.22a68.41,68.41,0,0,0,11.88-6.91s-4.35,1-9.64,2.4a79.14,79.14,0,0,0,13.3-10.83s-5.27,2.14-11.47,5a85.37,85.37,0,0,0,8.59-9.67s-7.49,4.26-14.8,9.06A78,78,0,0,0,98,352s-6.71,5.65-13,11.72c4.24-7.18,6.72-16.7,6.72-16.7s-5,6.21-9.76,13a78.58,78.58,0,0,0,3.18-16.44s-3.42,6.33-6.74,13.43a81.06,81.06,0,0,0,.23-15.5s-2.2,6.48-4.26,13.8a81.63,81.63,0,0,0-2.21-14.74s-1.66,9.79-2.49,19C68.46,351,63.4,341,63.4,341s.31,6.6,1.05,14a82.62,82.62,0,0,0-7.23-12.59s1.35,6.61,3.25,13.92a81.73,81.73,0,0,0-9.25-11.49s3.45,9.17,7.34,17.5C53.17,355.55,43.9,349.5,43.9,349.5s4.05,6.3,8.79,12.78a80,80,0,0,0-13.93-8s5.35,5.85,11.3,11.6a78.73,78.73,0,0,0-15.74-5.75s6.37,4.88,13.29,9.52A77.93,77.93,0,0,0,31,366.74s5.53,2.84,12.07,5.8a82.61,82.61,0,0,0-13.91-.08s8.62,3,17.22,5.23A69.39,69.39,0,0,0,35,379.43s2.89.5,6.85,1.06A67.93,67.93,0,0,0,35,382.4s8.63.74,16.49.78q1.28,0,2.61,0a49.41,49.41,0,0,0-10.27,4.45s6.58-.75,12.47-1.9a122.65,122.65,0,0,0,13.06-3.61v.07l0-.08.07,0v.13l0-.15.06,0,0,.14L70,395.9l1.38,0L71,382.32a111.6,111.6,0,0,0,14.84,6.41c7.31,2.32,17.78,1.69,17.78,1.69s-7.21-2.7-14.48-4.87a64.91,64.91,0,0,0,15.57-2s-8.34-1.36-16.23-2c7.4-1.08,15.89-5.37,15.89-5.37S97.89,376.48,91,377.22Z" style="fill:#92E3A9"></path><polygon points="81.54 455.6 60.42 455.6 55.89 391.18 86.07 391.18 81.54 455.6" style="fill:#263238;stroke:#263238;stroke-miterlimit:10"></polygon></g><g id="freepik--Character--inject-2"><path d="M308.86,166.63s2.77,4.79,2.77,7.37a20.43,20.43,0,0,1-.19,3.5l14.38,1.11s-.19-6.45-1.66-10.32-3.77-3.25-3.77-3.25Z" style="fill:#fff;stroke:#263238;stroke-miterlimit:10"></path><path d="M327.11,171.79s-12.35,1.66-15.48,2.21a9.34,9.34,0,0,0-5.16,3.13L327.11,179Z" style="fill:#fff;stroke:#263238;stroke-miterlimit:10"></path><path d="M308.33,126.68s-6.29,5.53-7.25,8.58-1.33,6.87-2.09,8.4-5.34,4-5.15,6.1,2.48,13.73,4.19,16,8,3.05,9.16,2.86,11.82-2.1,13.73-4,4.39-16.79-.19-24.23-6.11-9.91-7.44-13.35S308.33,126.68,308.33,126.68Z" style="fill:#fff;stroke:#263238;stroke-miterlimit:10"></path><path d="M317.29,163.87c-4-1.9-4.38-7.25-3.05-10.3s8.4-4,8.4-4-7.44.19-13.55,0a47.28,47.28,0,0,1-12.77-2.67l-.6-.11c-1.07,1-2,2-1.88,3,.19,2.1,2.48,13.73,4.19,16s8,3.05,9.16,2.86,10.37-1.84,13.2-3.6A20.48,20.48,0,0,1,317.29,163.87Z" style="fill:#92E3A9;stroke:#263238;stroke-miterlimit:10"></path><path d="M304.67,143.27c-.18,1.14-.66,2-1.08,1.95s-.61-1-.43-2.19.67-2,1.08-1.95S304.85,142.12,304.67,143.27Z" style="fill:#263238"></path><path d="M303,137.58s1.73-2.66,3.87,1.07" style="fill:none;stroke:#263238;stroke-linecap:round;stroke-miterlimit:10"></path><path d="M299.51,154.48a20.54,20.54,0,0,0,8.8.35" style="fill:none;stroke:#263238;stroke-linecap:round;stroke-miterlimit:10;stroke-width:0.5px"></path><path d="M296,153.36s.73.31,1.92.67" style="fill:none;stroke:#263238;stroke-linecap:round;stroke-miterlimit:10;stroke-width:0.5px"></path><path d="M307.57,159.44a41,41,0,0,1-9.58-.92" style="fill:none;stroke:#263238;stroke-linecap:round;stroke-miterlimit:10;stroke-width:0.5px"></path><path d="M311.07,159.26s-.55.06-1.47.11" style="fill:none;stroke:#263238;stroke-linecap:round;stroke-miterlimit:10;stroke-width:0.5px"></path><path d="M303.67,164.51a13.81,13.81,0,0,0,2.8-.09" style="fill:none;stroke:#263238;stroke-linecap:round;stroke-miterlimit:10;stroke-width:0.5px"></path><path d="M298.54,163.5a23,23,0,0,0,3.93.89" style="fill:none;stroke:#263238;stroke-linecap:round;stroke-miterlimit:10;stroke-width:0.5px"></path><path d="M303.84,452.22c.2-3.49.07-9.74.07-9.74L287,437.82a32.88,32.88,0,0,1-6.87,5c-3.89,2-9.13,4.59-13.68,5s-5.7,1.19-4.23,3.12,8.54,6.8,13.91,7.59,11.79-1.7,15.19-1.23a16.88,16.88,0,0,1,2.55.6l-1,6.66a25.11,25.11,0,0,0,6,1.87s1.61-3.62,2.76-6.23a30,30,0,0,0,1.4-4.17A9.92,9.92,0,0,0,303.84,452.22Z" style="fill:#263238;stroke:#263238;stroke-miterlimit:10"></path><path d="M300.13,295.9s-13.83,41.52-14.84,56.36,1,42-1.76,56.37S279,438.82,279,438.82s4.28,2.77,12.58,4,14.59,1.51,14.59,1.51,3-13.59,5.54-32,8.55-50.83,9.56-54.85-5-2-9.06-32.21-1.26-37-4.53-36.48S300.13,295.9,300.13,295.9Z" style="fill:#263238;stroke:#263238;stroke-miterlimit:10"></path><path d="M345.42,458.23c-.87-3.5-2.91-9.61-2.91-9.61l-18.05.58a34.27,34.27,0,0,1-5.24,7c-3.2,3.2-7.58,7.31-12,9.06s-5.24,2.91-3.2,4.37c4.47,3.19,11.45,4.08,16.79,3.9a21,21,0,0,0,8.9-2.16c2.38-1.22,4.77-4.58,7.59-4.59l1.06,6.86a25.51,25.51,0,0,0,6.49,0s.49-4.06.81-7A23.59,23.59,0,0,0,345.42,458.23Z" style="fill:#263238;stroke:#263238;stroke-miterlimit:10"></path><path d="M343.92,275.06a35.27,35.27,0,0,1,0,19.37c-3,10.57-10.56,17.61-11.82,21.64s-2,10.57-.25,20.13,10.56,44.79,12.07,64.16,1.51,50.08,1.51,50.08-10.31,1-15.09,1-6.55-.75-6.55-.75l-7.8-2.77s-.25-16.61-.5-36.74a220.63,220.63,0,0,0-3-34.72s-4-12.33-13.59-46.8-10.06-50.07-10.06-50.07S326.56,280.09,343.92,275.06Z" style="fill:#263238;stroke:#263238;stroke-miterlimit:10"></path><path d="M282.43,238.53l-1.2-.38c-2-.65-5.84-2-6.74-3.14-1.22-1.52-2.44-5.8-3.21-10.84s-4-5-6.72-6.11a4.49,4.49,0,0,0-4.58.61s-.76,19.25.61,20.77,5.65,3.06,6.42,3.21,14.66,9,14.66,9Z" style="fill:#fff;stroke:#263238;stroke-miterlimit:10"></path><path d="M278.93,236a16.43,16.43,0,0,0-4,7.06c-.88,4-1.33,6.4-1.33,6.4s5.74,2.64,6.4,3.75S283.12,236,283.12,236Z" style="fill:#adadad;stroke:#263238;stroke-miterlimit:10"></path><rect x="259.68" y="187.51" width="4.58" height="87.52" style="fill:#fff;stroke:#263238;stroke-miterlimit:10"></rect><path d="M254.62,231.15s-.81,2.73-.2,3.63,1.82,3.13,3.13,2.93,1.11-.6.71-1.71-.91-2.53-.91-2.53Z" style="fill:#fff;stroke:#263238;stroke-miterlimit:10"></path><path d="M255.13,226.5s-1.92,2.33-1.72,3.74,3.53,4,4.85,4,2.32-.3,2.22-1.31-1.42-1.12-1.87-1.77A41.74,41.74,0,0,0,255.13,226.5Z" style="fill:#fff;stroke:#263238;stroke-miterlimit:10"></path><path d="M257.23,221.88s-3.21,2.75-2.9,4,2.6,5.35,4.28,5.35,2.13-.62,1.68-2.3-1.53-4.43-1.53-4.43Z" style="fill:#fff;stroke:#263238;stroke-miterlimit:10"></path><path d="M267,226.16s-3.21-4.74-4.13-5.2-3.36.31-5-.46-3.2-1.52-3,1.07,1.37,3.82,2.75,3.67a4.48,4.48,0,0,1,2.75.92s.15,5.19,2.13,7.33a11.33,11.33,0,0,0,5.66,3.51" style="fill:#fff;stroke:#263238;stroke-miterlimit:10"></path><path d="M306.47,177.13s-13.06,2-16.38,6.08-9.79,49-10.9,65.61,3.14,35.38,4.24,36.67,23.22,5.35,35.57,3.32,27.27-6.08,28.56-7,1.85-3.14.92-7.19-1.84-7-1.84-7a7.13,7.13,0,0,1,3.13,4.79,64.89,64.89,0,0,1,.93,8.84,18.61,18.61,0,0,0,3.5-3.13c1.1-1.47.73-4.24-.74-9.4s-7.92-15.85-9.95-19.16-2.95-.56-2.4-5.9,5-14.37,8.3-28.75,5-13.64,1.47-25.8S327.11,179,327.11,179Z" style="fill:#adadad;stroke:#263238;stroke-miterlimit:10"></path><path d="M334.57,248.64A18.86,18.86,0,0,0,337.8,251" style="fill:none;stroke:#263238;stroke-miterlimit:10"></path><path d="M319.37,227.44S326,239.88,333,247.1" style="fill:none;stroke:#263238;stroke-miterlimit:10"></path><path d="M322.5,239.79s3.69,5.71,7.37,8.48" style="fill:none;stroke:#263238;stroke-miterlimit:10"></path><path d="M320.1,116s-11.24-4.06-16-.19-1.29,10.51,1.66,11.62,4,2,4.24,7.74,2.39,7.37,5.71,9.95,1.84,6.82,0,12.9,1.84,10.69,4.61,13.82,1.66,7.55-1.84,10.69-6.82,5.34-5.16,12.71,9.39,9,11.61,7.56-1.29,1.29-2-3.87,6.45-7.93,6.45-7.93-4.24,8.48-.55,12.35,9.58,1.29,9.58,6.27a6.23,6.23,0,0,1-4.61,6.08s6.27,3.5,12,3.32S357.15,216,361,207.54s-1.11-11.43-3.32-17.32,4.61-7.56,5.53-14.93-4.06-11.06-7.56-16.59,1.11-6.45-2-19.71-8.29-19.72-16.21-22.3S320.1,116,320.1,116Z" style="fill:#263238;stroke:#263238;stroke-miterlimit:10"></path><path d="M285.09,294.71s.5,8.87-.11,12.12-.61,4.27.2,6.1,2.85,6.3,4.27,6.91,3.46-.4,3.46-.4a22.14,22.14,0,0,0,3.66-.61c1.22-.41,2.64-1,3.25-1.22a6.15,6.15,0,0,0,3.05-4.27c.21-2.24-.61-2.85-1.22-2.24a15.83,15.83,0,0,1-1.83,1.43l-2.23-2.65s2.23-2.84,2.23-5.69-3.25-8.54-3.25-8.54l-.2-1.42-10.58-1.63Z" style="fill:#fff;stroke:#263238;stroke-miterlimit:10"></path><path d="M293,312.49a22.5,22.5,0,0,1,3,3.36c.81,1.35,2.06,2.55,3,2.15" style="fill:none;stroke:#263238;stroke-miterlimit:10"></path><path d="M289.79,313.3s3.63,6.05,4.7,6.18" style="fill:none;stroke:#263238;stroke-miterlimit:10"></path><path d="M287,314s3.36,5.38,4.7,5.78" style="fill:none;stroke:#263238;stroke-miterlimit:10"></path><line x1="299.82" y1="312.53" x2="315.35" y2="358.22" style="fill:none;stroke:#fff;stroke-miterlimit:10"></line><line x1="289.45" y1="319.84" x2="278.49" y2="355.78" style="fill:#fff;stroke:#263238;stroke-miterlimit:10"></line><polygon points="274.53 354.26 318.4 353.65 312 413.06 264.78 408.49 274.53 354.26" style="fill:#fff;stroke:#263238;stroke-miterlimit:10"></polygon><polygon points="312.92 353.65 312 413.06 326.93 411.53 318.4 353.65 312.92 353.65" style="fill:#fff;stroke:#263238;stroke-miterlimit:10"></polygon><polyline points="315.35 353.65 317.79 404.83 320.84 407.27" style="fill:#fff;stroke:#263238;stroke-miterlimit:10"></polyline><path d="M312.18,179.34s-7.74-4.23-15.66-2.39-11.06,10.87-11.25,23.59,1.48,33.35-.36,51.6-.86,42.42-.86,42.42l14.86,1.62s3.87-32.06,5.9-42.38.74-19.35,3.13-30.41,3.5-21.38,3.5-21.38" style="fill:#adadad;stroke:#263238;stroke-miterlimit:10"></path><path d="M305.55,193.17a8.39,8.39,0,0,1,4.23,6.08" style="fill:none;stroke:#263238;stroke-miterlimit:10"></path><path d="M308.13,191.88a19.29,19.29,0,0,1,3.5,8.1" style="fill:none;stroke:#263238;stroke-miterlimit:10"></path><path d="M306.28,240.16s-1.47-8.85-5.34-3.69-4.06,19-1.29,21,5.16-2.58,5.71-6.63S306.28,240.16,306.28,240.16Z" style="fill:#263238;stroke:#263238;stroke-miterlimit:10"></path></g></svg>